# xmcd
#
# Track frame offsets: 
#        150
#        12460
#        29174
#        43640
#        55142
#        69814
#        87862
#        97201
#        111373
#        127410
#
# Disc length: 1919 seconds
#
# Revision: 0
# Processed by: cddbd v1.5.2PL0 Copyright (c) Steve Scherf et al.
# Submitted via: ExactAudioCopyFreeDBPlugin 1.0
#
DISCID=90077d0a
DTITLE=Glen Campbell - 1980 - Somethin' 'bout You Baby I Like
DYEAR=1980
DGENRE=
TTITLE0=Somethin' 'bout You Baby I Like
TTITLE1=If You Could See You Through My Eyes
TTITLE2=That Kind
TTITLE3=Part Time Love
TTITLE4=Hollywood Smiles
TTITLE5=If This Is Love
TTITLE6=Hooked on Love
TTITLE7=Show Me You Love Me
TTITLE8=Late Night Confession
TTITLE9=It Goes Like It Goes
EXTD=
EXTT0=
EXTT1=
EXTT2=
EXTT3=
EXTT4=
EXTT5=
EXTT6=
EXTT7=
EXTT8=
EXTT9=
PLAYORDER=
